<svg xmlns="http://www.w3.org/2000/svg" viewBox="0 0 1440 420" role="img" aria-labelledby="title desc">
  <title id="title">Vague dynamique Madatek</title>
  <desc id="desc">Une vague rouge, blanche et bleu nuit inspiree du mouvement du logo Madatek.</desc>
  <defs>
    <linearGradient id="redShift" x1="0" x2="1" y1="0" y2="1">
      <stop offset="0" stop-color="#ff1d17"/>
      <stop offset="0.52" stop-color="#f74c3c"/>
      <stop offset="1" stop-color="#b80f16"/>
    </linearGradient>
    <linearGradient id="navyShift" x1="0" x2="1" y1="1" y2="0">
      <stop offset="0" stop-color="#02091d"/>
      <stop offset="1" stop-color="#082a43"/>
    </linearGradient>
  </defs>
  <path fill="url(#redShift)" d="M0 70c157 33 248 95 443 75 181-18 300-91 521-76 186 13 303 87 476 63v172H0z"/>
  <path fill="#ffffff" d="M0 236c170-68 318-126 520-139 181-12 313 12 475 34 169 23 298 31 445-10v80c-201 38-382 27-546 2-167-26-317-55-506-12C240 224 115 283 0 350z"/>
  <path fill="url(#navyShift)" d="M0 332c201-126 409-177 637-166 162 8 303 44 456 49 125 5 238-11 347-54v259H0z"/>
</svg>
