<svg xmlns="http://www.w3.org/2000/svg" viewBox="0 0 920 560" role="img" aria-labelledby="title desc">
  <title id="title">Carte operationnelle Madatek</title>
  <desc id="desc">Illustration abstraite d'un centre d'operations BPO connectant appels, chat, donnees et support humain.</desc>
  <defs>
    <linearGradient id="panel" x1="0" x2="1" y1="0" y2="1">
      <stop offset="0" stop-color="#0c2740"/>
      <stop offset="1" stop-color="#03091b"/>
    </linearGradient>
    <linearGradient id="red" x1="0" x2="1" y1="0" y2="0">
      <stop offset="0" stop-color="#ff2720"/>
      <stop offset="1" stop-color="#f74c3c"/>
    </linearGradient>
    <filter id="glow" x="-30%" y="-30%" width="160%" height="160%">
      <feGaussianBlur stdDeviation="8" result="blur"/>
      <feMerge>
        <feMergeNode in="blur"/>
        <feMergeNode in="SourceGraphic"/>
      </feMerge>
    </filter>
  </defs>
  <rect width="920" height="560" rx="34" fill="url(#panel)"/>
  <path d="M60 116h800M60 216h800M60 316h800M60 416h800M160 64v432M300 64v432M440 64v432M580 64v432M720 64v432" stroke="#ffffff" stroke-opacity=".08"/>
  <path d="M142 365c92-126 187-101 252-168 78-80 134-90 212-29 67 53 106 78 176 29" fill="none" stroke="#f74c3c" stroke-width="7" stroke-linecap="round" filter="url(#glow)"/>
  <path d="M142 365c92-126 187-101 252-168 78-80 134-90 212-29 67 53 106 78 176 29" fill="none" stroke="#ffffff" stroke-opacity=".72" stroke-width="2" stroke-linecap="round"/>
  <g fill="#f74c3c">
    <circle cx="142" cy="365" r="14"/>
    <circle cx="394" cy="197" r="14"/>
    <circle cx="606" cy="168" r="14"/>
    <circle cx="782" cy="197" r="14"/>
  </g>
  <g fill="#ffffff" fill-opacity=".9" font-family="Arial, sans-serif" font-size="24" font-weight="700">
    <text x="92" y="106">APPELS</text>
    <text x="334" y="154">CHAT</text>
    <text x="568" y="126">DATA</text>
    <text x="714" y="252">SAV</text>
  </g>
  <g fill="none" stroke="#42d9cf" stroke-opacity=".85" stroke-width="3">
    <rect x="86" y="438" width="164" height="42" rx="8"/>
    <rect x="286" y="438" width="164" height="42" rx="8"/>
    <rect x="486" y="438" width="164" height="42" rx="8"/>
    <rect x="686" y="438" width="110" height="42" rx="8"/>
  </g>
</svg>
