<svg xmlns="http://www.w3.org/2000/svg" viewBox="0 0 1100 620" role="img" aria-labelledby="title desc">
  <title id="title">Matrice de services MadaTEK</title>
  <desc id="desc">Matrice visuelle reliant les prestations relation client, back office, RH, leads, design et data.</desc>
  <defs>
    <linearGradient id="bg" x1="0" x2="1" y1="0" y2="1">
      <stop offset="0" stop-color="#020b24"/>
      <stop offset="1" stop-color="#061a32"/>
    </linearGradient>
    <linearGradient id="hot" x1="0" x2="1" y1="0" y2="1">
      <stop offset="0" stop-color="#ff1e18"/>
      <stop offset="1" stop-color="#f74c3c"/>
    </linearGradient>
    <filter id="glow" x="-30%" y="-30%" width="160%" height="160%">
      <feGaussianBlur stdDeviation="10" result="blur"/>
      <feMerge>
        <feMergeNode in="blur"/>
        <feMergeNode in="SourceGraphic"/>
      </feMerge>
    </filter>
  </defs>
  <rect width="1100" height="620" rx="38" fill="url(#bg)"/>
  <g stroke="#fff" stroke-opacity=".07">
    <path d="M90 90h920M90 200h920M90 310h920M90 420h920M90 530h920"/>
    <path d="M150 58v504M310 58v504M470 58v504M630 58v504M790 58v504M950 58v504"/>
  </g>
  <path d="M146 436C246 248 347 371 471 229c92-106 170-19 250-42 101-29 168 35 227 159" fill="none" stroke="url(#hot)" stroke-width="8" stroke-linecap="round" filter="url(#glow)"/>
  <path d="M146 436C246 248 347 371 471 229c92-106 170-19 250-42 101-29 168 35 227 159" fill="none" stroke="#fff" stroke-width="2" stroke-opacity=".65" stroke-linecap="round"/>
  <g fill="#f74c3c" filter="url(#glow)">
    <circle cx="146" cy="436" r="13"/>
    <circle cx="276" cy="322" r="11"/>
    <circle cx="471" cy="229" r="15"/>
    <circle cx="721" cy="187" r="12"/>
    <circle cx="948" cy="346" r="15"/>
  </g>
  <g font-family="Arial, sans-serif" font-weight="800">
    <text x="80" y="76" fill="#f74c3c" font-size="18" letter-spacing="5">MADATEK SERVICE OS</text>
    <text x="80" y="124" fill="#fff" font-size="52" letter-spacing="2">RELATION CLIENT</text>
    <text x="80" y="560" fill="#fff" opacity=".7" font-size="18">APPELS</text>
    <text x="260" y="560" fill="#fff" opacity=".7" font-size="18">TCHAT</text>
    <text x="444" y="560" fill="#fff" opacity=".7" font-size="18">DATA</text>
    <text x="626" y="560" fill="#fff" opacity=".7" font-size="18">RH</text>
    <text x="796" y="560" fill="#fff" opacity=".7" font-size="18">LEADS</text>
    <text x="920" y="560" fill="#fff" opacity=".7" font-size="18">SAV</text>
  </g>
</svg>
